<svg xmlns="http://www.w3.org/2000/svg" width="512" height="512" viewBox="0 0 512 512" fill="none">
  <defs>
    <linearGradient id="g1" x1="0" y1="0" x2="1" y2="1">
      <stop offset="0%" stop-color="#111" />
      <stop offset="100%" stop-color="#ff7a00" />
    </linearGradient>
  </defs>
  <rect width="512" height="512" rx="96" fill="#0f0f10" />
  <circle cx="256" cy="256" r="188" fill="url(#g1)" opacity="0.25" />
  <g fill="none" stroke="#ff7a00" stroke-width="18" stroke-linecap="round" stroke-linejoin="round">
    <path d="M148 190h216" />
    <path d="M148 252h216" />
    <path d="M148 314h216" />
    <path d="M200 158v224" opacity="0.75" />
    <path d="M312 130v252" opacity="0.75" />
  </g>
  <g fill="#f4f5f7" font-family="'SF Pro Display','Inter','Arial',sans-serif" font-weight="700" font-size="72" text-anchor="middle">
    <text x="256" y="286">STACK</text>
    <text x="256" y="356" fill="#ff7a00">HASH</text>
  </g>
  <g fill="#ff7a00" opacity="0.9">
    <path d="M390 170c14 0 26 12 26 26s-12 26-26 26-26-12-26-26 12-26 26-26z" />
    <path d="M118 330c14 0 26 12 26 26s-12 26-26 26-26-12-26-26 12-26 26-26z" />
  </g>
</svg>
